<svg xmlns="http://www.w3.org/2000/svg" fill="none" viewBox="0 0 278 41" height="41" width="278">
<path fill="#EDEDE9" d="M257.864 27.9411C263.922 15.9543 267.616 10.9452 272.403 10.9431C275.636 10.9443 278 12.6947 278 17.5813C278 28.0553 267.9 40.0508 258.782 40.0508C255.384 40.0508 252.861 38.5229 251.552 36.8491C250.073 38.6433 248.412 39.7592 246.65 39.7592C244.75 39.7592 243.133 38.8843 243.133 36.3228C243.133 34.3447 244.574 30.9083 248.79 22.9324H247.865C240.653 35.0992 237.652 40.0508 232.574 40.0508C229.862 40.0508 227.609 38.4151 227.609 34.1672C227.609 25.4938 238.923 11.6405 246.713 11.6405C247.984 11.6405 249.369 11.9322 250.464 12.6867L251.156 10.474H255.944L248.387 32.8294C247.758 34.5793 248.161 35.2767 248.909 35.2767C250.011 35.2767 251.282 34.0594 253.125 30.6801L253.232 30.7118L261.13 7.57017C262.055 4.66002 261.589 3.49977 259.166 3.32225L256.914 3.14473L257.373 1.5153L266.724 0H268.165L263.64 12.9213C262.136 17.3467 259.827 22.292 257.058 27.9411H257.864ZM232.284 32.4807C232.284 34.6363 233.436 35.2767 234.65 35.2767H234.657C238.118 35.2767 242.327 29.2218 248.966 17.8666C247.462 15.5398 245.153 14.6648 243.655 14.6077C240.251 14.7853 232.284 26.5399 232.284 32.4807ZM255.844 35.5113C256.712 36.7349 258.097 37.4894 259.481 37.4894C266.289 37.4894 272.985 25.3226 272.985 18.6274C272.985 16.4718 272.173 15.4256 270.732 15.4256C266.233 15.4256 257.977 29.5135 255.844 35.5113Z" clip-rule="evenodd" fill-rule="evenodd"></path>
<path fill="#EDEDE9" d="M272.403 10.9431C272.404 10.9431 272.405 10.9431 272.406 10.9431H272.4C272.401 10.9431 272.402 10.9431 272.403 10.9431Z"></path>
<path fill="#EDEDE9" d="M62.5483 1.52798H68.1613V39.2456H62.5483V1.52798Z"></path>
<path fill="#EDEDE9" d="M17.7199 34.4398C11.377 34.4398 6.33663 28.8795 6.34293 20.6563C6.34293 12.4331 11.3959 7.14537 17.7388 7.15171C22.9365 7.15171 26.7309 9.98577 27.9768 14.3351H33.9548C32.7655 6.74594 26.2149 1.76257 17.7451 1.75623C8.43836 1.74989 0.00630369 8.86355 3.61639e-06 20.6499C-0.0062886 32.5441 8.19924 39.8289 17.7136 39.8353C26.1897 39.8353 32.5327 35.0801 33.9925 27.2754H28.0146C26.5547 31.7199 22.9113 34.4461 17.7136 34.4398H17.7199Z"></path>
<path fill="#EDEDE9" d="M58.4896 21.4298C58.5462 13.9928 53.8708 11.4757 47.6286 11.4694C41.443 11.4694 36.5536 15.0262 35.8174 20.6816H41.2793C41.9023 17.651 44.0355 16.0279 47.4146 16.0279C50.9007 16.0279 52.9773 17.4481 52.971 21.2713V21.5312L46.886 22.5203C39.8132 23.6678 34.9238 25.6016 34.9238 31.5233C34.9238 37.0266 39.6999 39.8036 44.6899 39.8099C48.7423 39.8099 51.6055 38.2946 53.3233 35.6761L53.424 39.2393H58.6217C58.414 35.9424 58.3637 34.63 58.3637 33.7931L58.477 21.4298H58.4896ZM52.971 27.9221C52.971 32.7406 49.7429 35.2006 45.7408 35.2006C42.6763 35.2006 40.4928 33.7804 40.4928 31.2697C40.4928 28.0235 44.1362 27.0789 52.9773 25.9883V27.9284L52.971 27.9221Z" clip-rule="evenodd" fill-rule="evenodd"></path>
<path fill="#EDEDE9" d="M91.771 15.3242C90.2671 13.2256 87.3536 11.4947 83.4585 11.4947C76.8576 11.4947 70.8734 16.5161 70.8671 25.4748C70.8608 34.8519 76.5744 39.8353 83.3893 39.8353C87.1837 39.8353 90.2545 38.06 91.7647 35.6001V39.2647H97.3777L97.4029 1.547H91.7899L91.7773 15.3178L91.771 15.3242ZM84.2703 35.0168C79.8529 35.0168 76.6814 31.4472 76.6877 25.4748C76.6877 19.7623 79.8655 16.3069 84.2829 16.3133C88.6499 16.3133 91.8717 19.7243 91.8654 25.4875C91.8654 31.4599 88.48 35.0168 84.2703 35.0168Z" clip-rule="evenodd" fill-rule="evenodd"></path>
<path fill="#EDEDE9" d="M99.9765 25.4938C99.9828 16.9029 106.382 11.5137 113.348 11.5137L113.355 11.5074C120.327 11.5137 126.506 16.3893 126.5 26.1342V27.4466L105.753 27.4339C106.269 32.151 109.749 35.0358 113.858 35.0358C116.557 35.0421 119.263 34.1481 120.616 31.536H126.229C124.612 37.3499 118.942 39.8543 113.694 39.8543C106.206 39.8479 99.9765 34.4525 99.9765 25.4938ZM113.241 16.2752C109.39 16.2752 106.168 18.7859 105.696 22.926L105.703 22.9197L120.622 22.9324C120.308 18.9 117.294 16.2752 113.241 16.2752Z" clip-rule="evenodd" fill-rule="evenodd"></path>
<path fill="#EDEDE9" d="M161.562 21.4298C161.619 13.9928 155.735 11.4377 149.499 11.4377C143.263 11.4377 138.991 13.2319 134.611 18.5133V12.0844H129.048L129.029 39.2203H134.642L134.655 26.8823C134.655 20.4787 141.879 16.3957 147.725 16.2182C153.161 16.0533 156.05 16.998 156.056 21.2776V21.5375L149.971 22.5266C142.898 23.6742 138.009 25.6079 138.009 31.5297C138.009 37.0329 142.785 39.8099 147.775 39.8163C151.827 39.8163 154.691 38.301 156.408 35.6825L156.509 39.2456H161.707C161.499 35.9488 161.449 34.6363 161.449 33.7994L161.562 21.4361V21.4298ZM156.043 27.9221C156.043 32.7406 152.815 35.2006 148.813 35.2006C145.749 35.2006 143.565 33.7804 143.565 31.2697C143.565 28.0235 147.209 27.0852 156.043 25.9884V27.9221Z" clip-rule="evenodd" fill-rule="evenodd"></path>
<path fill="#EDEDE9" d="M184.253 21.9497H197.298V25.4431H184.253V39.2393H180.559V25.4431H167.515V21.9497H180.559V8.26758H184.253V21.9497Z"></path>
<path fill="#EDEDE9" d="M225.3 25.386C220.857 33.5395 218.491 36.8554 214.162 36.8554H211.034C208.435 36.8554 206.818 36.158 206.818 33.5965C206.818 32.7216 206.994 31.6184 207.397 30.2806L213.595 8.62897C214.81 4.38106 215.559 3.91189 219.479 3.7407L220.001 1.76257H205.283L204.704 3.7407C207.359 3.79777 209.09 4.03235 209.09 6.30213C209.09 6.88543 208.977 7.58284 208.744 8.45779L201.967 32.2651C200.696 36.6906 198.852 37.0963 195.158 37.2738L194.579 39.252H222.814L228.068 25.3987H225.3V25.386Z"></path>
</svg>
