<svg xmlns="http://www.w3.org/2000/svg" fill="none" viewBox="0 0 222 32" height="32" width="222">
<path fill="#F7F6F3" d="M205.92 22.3212C210.758 12.749 213.708 8.74887 217.53 8.74724C220.112 8.7482 222 10.146 222 14.0482C222 22.4123 213.935 31.9915 206.654 31.9915C203.94 31.9915 201.925 30.7713 200.88 29.4347C199.699 30.8675 198.372 31.7586 196.965 31.7586C195.448 31.7586 194.156 31.0599 194.156 29.0145C194.156 27.4348 195.307 24.6907 198.674 18.3214H197.935C192.177 28.0373 189.78 31.9915 185.724 31.9915C183.559 31.9915 181.76 30.6853 181.76 27.2931C181.76 20.3669 190.795 9.30417 197.016 9.30417C198.031 9.30417 199.136 9.53706 200.011 10.1396L200.563 8.37257H204.387L198.352 26.2248C197.85 27.6221 198.171 28.1791 198.769 28.1791C199.649 28.1791 200.664 27.207 202.136 24.5084L202.222 24.5337L208.528 6.05372C209.267 3.72979 208.895 2.80326 206.96 2.66149L205.161 2.51973L205.528 1.21854L212.995 0.00847626H214.146L210.533 10.3269C209.332 13.8609 207.488 17.81 205.277 22.3212H205.92ZM185.493 25.9463C185.493 27.6677 186.413 28.1791 187.383 28.1791H187.388C190.151 28.1791 193.513 23.3439 198.815 14.276C197.614 12.4179 195.769 11.7192 194.573 11.6737C191.855 11.8154 185.493 21.2022 185.493 25.9463ZM204.307 28.3664C205 29.3436 206.106 29.9461 207.211 29.9461C212.648 29.9461 217.995 20.2302 217.995 14.8836C217.995 13.1622 217.347 12.3268 216.196 12.3268C212.603 12.3268 206.01 23.5768 204.307 28.3664Z" clip-rule="evenodd" fill-rule="evenodd"></path>
<path fill="#F7F6F3" d="M217.53 8.74724C217.531 8.74724 217.532 8.74724 217.533 8.74724H217.528C217.529 8.74724 217.53 8.74724 217.53 8.74724Z"></path>
<path fill="#F7F6F3" d="M49.9486 1.22867H54.4309V31.3485H49.9486V1.22867Z"></path>
<path fill="#F7F6F3" d="M14.1504 27.5108C9.08523 27.5108 5.06019 23.0705 5.06521 16.5038C5.06521 9.93705 9.1003 5.71449 14.1655 5.71956C18.3162 5.71956 21.3463 7.98272 22.3412 11.456H27.115C26.1652 5.39552 20.9342 1.416 14.1705 1.41093C6.73855 1.40587 0.00503388 7.08657 2.88791e-06 16.4987C-0.00502183 25.9969 6.5476 31.8143 14.1454 31.8194C20.9141 31.8194 25.9793 28.0221 27.1451 21.7896H22.3714C21.2056 25.3387 18.2961 27.5158 14.1454 27.5108H14.1504Z"></path>
<path fill="#F7F6F3" d="M46.7075 17.1215C46.7527 11.1825 43.0191 9.17253 38.0343 9.16746C33.0947 9.16746 29.1903 12.0078 28.6024 16.524H32.9641C33.4616 14.1039 35.165 12.8078 37.8635 12.8078C40.6473 12.8078 42.3056 13.9419 42.3006 16.9949V17.2025L37.4414 17.9923C31.7933 18.9087 27.8888 20.4529 27.8888 25.1818C27.8888 29.5765 31.7028 31.7941 35.6876 31.7991C38.9237 31.7991 41.2101 30.5891 42.582 28.498L42.6624 31.3435H46.813C46.6472 28.7107 46.607 27.6626 46.607 26.9943L46.6974 17.1215H46.7075ZM42.3006 22.306C42.3006 26.1539 39.7227 28.1183 36.5268 28.1183C34.0796 28.1183 32.336 26.9842 32.336 24.9793C32.336 22.387 35.2454 21.6326 42.3056 20.7618V22.311L42.3006 22.306Z" clip-rule="evenodd" fill-rule="evenodd"></path>
<path fill="#F7F6F3" d="M73.2848 12.2458C72.0838 10.5699 69.7572 9.18772 66.6468 9.18772C61.3755 9.18772 56.5967 13.1976 56.5917 20.3517C56.5867 27.8399 61.1494 31.8194 66.5915 31.8194C69.6215 31.8194 72.0738 30.4017 73.2798 28.4373V31.3637H77.7621L77.7822 1.24385H73.2999L73.2898 12.2407L73.2848 12.2458ZM67.295 27.9715C63.7674 27.9715 61.2348 25.121 61.2398 20.3517C61.2398 15.7899 63.7775 13.0305 67.305 13.0356C70.7924 13.0356 73.3652 15.7595 73.3602 20.3618C73.3602 25.1312 70.6567 27.9715 67.295 27.9715Z" clip-rule="evenodd" fill-rule="evenodd"></path>
<path fill="#F7F6F3" d="M79.8374 20.3668C79.8424 13.5065 84.9529 9.2029 90.5155 9.2029L90.5206 9.19784C96.0883 9.2029 101.023 13.0964 101.018 20.8782V21.9263L84.4503 21.9161C84.8624 25.683 87.6412 27.9867 90.9226 27.9867C93.0783 27.9917 95.239 27.2779 96.3194 25.1919H100.802C99.5103 29.8347 94.9828 31.8346 90.7919 31.8346C84.8121 31.8295 79.8374 27.5209 79.8374 20.3668ZM90.4301 13.0052C87.3548 13.0052 84.782 15.0102 84.4051 18.3163L84.4101 18.3113L96.3244 18.3214C96.0732 15.1013 93.6662 13.0052 90.4301 13.0052Z" clip-rule="evenodd" fill-rule="evenodd"></path>
<path fill="#F7F6F3" d="M129.017 17.1215C129.062 11.1825 124.364 9.14215 119.384 9.14215C114.404 9.14215 110.992 10.575 107.495 14.7925V9.65858H103.053L103.038 31.3283H107.52L107.53 21.4756C107.53 16.362 113.299 13.1014 117.967 12.9597C122.309 12.828 124.615 13.5824 124.62 16.9999V17.2075L119.761 17.9974C114.113 18.9138 110.209 20.458 110.209 25.1868C110.209 29.5815 114.023 31.7991 118.007 31.8042C121.243 31.8042 123.53 30.5941 124.902 28.5031L124.982 31.3485H129.133C128.967 28.7158 128.927 27.6677 128.927 26.9994L129.017 17.1265V17.1215ZM124.61 22.306C124.61 26.1539 122.032 28.1183 118.837 28.1183C116.389 28.1183 114.646 26.9842 114.646 24.9793C114.646 22.387 117.555 21.6377 124.61 20.7618V22.306Z" clip-rule="evenodd" fill-rule="evenodd"></path>
<path fill="#F7F6F3" d="M147.137 17.5366H157.554V20.3264H147.137V31.3435H144.188V20.3264H133.771V17.5366H144.188V6.61065H147.137V17.5366Z"></path>
<path fill="#F7F6F3" d="M179.916 20.2808C176.368 26.7918 174.478 29.4398 171.021 29.4398H168.524C166.448 29.4398 165.157 28.8828 165.157 26.8374C165.157 26.1387 165.298 25.2577 165.619 24.1894L170.569 6.89924C171.539 3.50702 172.137 3.13236 175.267 2.99565L175.684 1.416H163.931L163.469 2.99565C165.589 3.04123 166.971 3.22856 166.971 5.04112C166.971 5.50691 166.881 6.06384 166.695 6.76254L161.283 25.7742C160.268 29.3081 158.795 29.6322 155.846 29.7739L155.383 31.3536H177.931L182.127 20.2909H179.916V20.2808Z"></path>
</svg>
